<svg xmlns="http://www.w3.org/2000/svg" viewBox="0 0 60 60"><defs><style>.cls-1{fill:#fff;}.cls-2{fill:#324261;}</style></defs><g id="レイヤー_2" data-name="レイヤー 2"><g id="Navy"><path class="cls-1" d="M60,0H0V60H60V0Z"/><rect class="cls-2" x="17.52" y="13.12" width="0.44" height="12.08"/><path class="cls-2" d="M45.67,25.2l-3.51-5.32a3.51,3.51,0,0,0-.58-7H37.19V25.2h.44V19.94h4l3.48,5.27Zm-8-11.86h3.95a3.08,3.08,0,1,1,0,6.15H37.63Z"/><path class="cls-2" d="M15.13,36.21h-.45v1.38H12.25V38h2.43v1.41h-2V44h2v1.33H12.25v.44h2.43v2.48h.45V45.81h2.43v-.44H15.13V44h2v-4.6h-2V38h2.43v-.44H15.13Zm-.45,3.67V41.5H13.07V39.88ZM13.07,43.6V41.94h1.61V43.6Zm2.06,0V41.94h1.61V43.6Zm1.61-3.72V41.5H15.13V39.88Z"/><rect class="cls-2" x="18.35" y="37.59" width="5.79" height="0.44"/><polygon class="cls-2" points="17.86 41.57 20.15 41.57 17.8 47.65 22.94 46.73 23.64 48.12 24.03 47.92 21.68 43.27 21.29 43.47 22.73 46.32 18.5 47.08 20.62 41.57 24.15 41.57 24.15 41.13 17.86 41.13 17.86 41.57"/><path class="cls-2" d="M34.84,37.56h.82v8.37l-.86.26.12.42,3-.9V48.6h.44v-11H39v-.44H34.84Zm3.12,5H36.1V40.32H38ZM36.1,45.8V43.05H38v2.2ZM38,39.88H36.1V37.56H38Z"/><path class="cls-2" d="M42.93,42.14H39.6v4.48h3.33Zm-.44.44V44H40.05V42.58Zm-2.44,3.6v-1.7h2.44v1.7Z"/><path class="cls-2" d="M47.05,45.74l-.63,1.91a5,5,0,0,1-1.31-2.27,15.63,15.63,0,0,0,1.4-3.2l-.43-.13a14.27,14.27,0,0,1-1.15,2.72,22.63,22.63,0,0,1-.59-3.8h2.47v-.44h-2.5a34.09,34.09,0,0,1,0-3.8l-.45,0c0,.15-.08,1.8,0,3.82H42.31l.4-2h.68v-.44h-2V36.69H41v1.36h-2v.44h.67l.4,2H39.05V41h4.84a20.75,20.75,0,0,0,.74,4.33,7.41,7.41,0,0,1-2.75,2.83l.2.39a7.36,7.36,0,0,0,2.73-2.67,4.73,4.73,0,0,0,1.6,2.35l.24.16.82-2.48Zm-6.88-7.25h2.09l-.4,2H40.57Z"/><rect class="cls-2" x="45.64" y="37.21" width="0.44" height="2.31" transform="translate(-13.16 28.79) rotate(-30.7)"/></g></g></svg>